<svg xmlns="http://www.w3.org/2000/svg" width="24" height="24" viewBox="0 0 24 24" fill="none">
  <g clip-path="url(#clip0_208_1474)">
    <path d="M21.9 18.7533L21.6733 18.5533C21.0303 17.9804 20.4674 17.3234 20 16.6C19.4895 15.6017 19.1835 14.5115 19.1 13.3933V10.1C19.1044 8.34374 18.4673 6.64632 17.3085 5.32665C16.1496 4.00698 14.5488 3.15591 12.8067 2.93333V2.07333C12.8067 1.83729 12.7129 1.61092 12.546 1.44401C12.3791 1.2771 12.1527 1.18333 11.9167 1.18333C11.6806 1.18333 11.4542 1.2771 11.2873 1.44401C11.1204 1.61092 11.0267 1.83729 11.0267 2.07333V2.94667C9.30016 3.18529 7.71864 4.0415 6.57501 5.35674C5.43138 6.67197 4.80315 8.3571 4.80666 10.1V13.3933C4.72316 14.5115 4.41718 15.6017 3.90666 16.6C3.44725 17.3216 2.89346 17.9785 2.25999 18.5533L2.03333 18.7533V20.6333H21.9V18.7533Z" fill="white"/>
    <path d="M10.2134 21.3333C10.2718 21.7559 10.4812 22.1431 10.8029 22.4233C11.1246 22.7035 11.5368 22.8579 11.9634 22.8579C12.39 22.8579 12.8022 22.7035 13.1239 22.4233C13.4455 22.1431 13.6549 21.7559 13.7134 21.3333H10.2134Z" fill="white"/>
  </g>
  <defs>
    <clipPath id="clip0_208_1474">
      <rect width="24" height="24" fill="white"/>
    </clipPath>
  </defs>
</svg>