<svg xmlns="http://www.w3.org/2000/svg" width="190" height="51" viewBox="0 0 190 51" fill="none">
  <g clip-path="url(#clip0_208_1900)">
    <path
      d="M126.415 0V37.0315C131.002 37.244 135.576 37.5009 140.138 37.8039V45.6553C132.903 45.1749 125.66 44.8103 118.414 44.5618V0H126.415ZM189.998 0.00443478L179.579 24.0609L189.996 50.8315L189.984 50.8363C186.947 50.406 183.907 49.9966 180.864 49.6082L175.015 34.5832L169.11 48.2135C166.308 47.9052 163.505 47.6145 160.7 47.3413L170.857 23.8998L161.555 0.00480435H170.211L175.419 13.3772L181.21 0.00443478H189.998ZM90.9525 44.1727V0.00406522H113.288V7.92607H98.9539V18.1926H109.8V26.044H98.9539V44.1712L90.9525 44.1727ZM61.0753 7.92643V0.00369565H85.823V7.92607H77.4494V44.3874C74.7787 44.4576 72.111 44.5396 69.4488 44.6398V7.92643H61.0753ZM33.7217 46.9222V0.00517391H55.9461V7.9268H41.722V18.6575C44.9898 18.6157 49.6361 18.5688 52.5269 18.5755V26.4276C48.9084 26.3833 44.8239 26.4771 41.722 26.5078V38.3945C46.4599 38.0227 51.2015 37.6999 55.9461 37.4262V45.2784C48.5294 45.7045 41.1202 46.2528 33.7217 46.923V46.9222ZM18.0259 28.7721L18.0255 0.00369565H26.0269V47.6628C23.102 47.9622 20.1823 48.2811 17.2681 48.6178L8.00246 22.1089V49.7531C5.33333 50.099 2.66629 50.4607 0.00146484 50.8381V0.00443478H7.6054L18.0255 28.7721H18.0259ZM146.739 46.1288V0.00443478H154.74V46.787C152.076 46.5504 149.41 46.3324 146.739 46.1291V46.1288Z"
      fill="#DB202C"
    />
  </g>
  <defs>
    <clipPath id="clip0_208_1900">
      <rect width="190" height="51" fill="white" />
    </clipPath>
  </defs>
</svg>
